<?xml version="1.0" standalone="no"?>
<!DOCTYPE svg PUBLIC "-//W3C//DTD SVG 20010904//EN"
 "http://www.w3.org/TR/2001/REC-SVG-20010904/DTD/svg10.dtd">
<svg version="1.0" xmlns="http://www.w3.org/2000/svg"
 width="850.000000pt" height="850.000000pt" viewBox="0 0 850.000000 850.000000"
 preserveAspectRatio="xMidYMid meet">

<g transform="translate(0.000000,850.000000) scale(0.100000,-0.100000)"
fill="#000000" stroke="none">
<path d="M8100 8481 c-40 -15 -193 -102 -830 -471 -102 -59 -304 -176 -450
-260 -146 -84 -348 -201 -450 -260 -102 -59 -304 -176 -450 -260 -146 -84
-364 -210 -485 -280 -338 -196 -970 -561 -1165 -673 -96 -55 -269 -155 -385
-222 -292 -169 -466 -269 -1645 -950 -569 -329 -1134 -655 -1255 -725 -121
-70 -359 -207 -530 -305 -171 -99 -326 -191 -346 -206 -84 -65 -120 -203 -84
-325 13 -46 28 -70 68 -110 48 -47 71 -58 312 -157 575 -235 1074 -440 1150
-471 272 -113 502 -206 512 -206 9 0 347 289 933 800 74 64 189 164 256 221
143 124 470 407 749 649 226 197 273 237 1755 1521 586 507 1128 976 1204
1042 76 67 137 116 135 110 -2 -7 -112 -144 -243 -305 -132 -161 -317 -387
-411 -503 -597 -733 -867 -1065 -1080 -1325 -133 -162 -351 -430 -485 -595
-134 -165 -366 -449 -515 -631 -148 -183 -374 -459 -501 -615 -127 -156 -365
-448 -528 -648 l-297 -363 3 -867 3 -866 27 -50 c34 -64 79 -110 143 -143 93
-49 244 -33 321 35 21 19 201 237 824 998 189 231 348 425 354 432 8 9 21 7
56 -7 25 -11 272 -112 550 -225 621 -254 1089 -445 1195 -489 409 -170 383
-161 475 -161 64 0 94 5 120 19 68 36 108 76 139 138 30 60 60 236 642 3733
427 2568 609 3685 606 3721 -14 189 -223 324 -397 255z"/>
</g>
</svg>
